HIERARCHY
ROOT Hips
{
	OFFSET 0.000000 0.000000 0.000000
	CHANNELS 6 Xposition Yposition Zposition Zrotation Yrotation Xrotation 
	JOINT LHipJoint
	{
		OFFSET 0.000000 0.000000 0.000000
		CHANNELS 3 Zrotation Yrotation Xrotation
		JOINT LeftUpLeg
		{
			OFFSET 1.363060 -1.794630 0.839290
			CHANNELS 3 Zrotation Yrotation Xrotation
			JOINT LeftLeg
			{
				OFFSET 2.448110 -6.726130 0.000000
				CHANNELS 3 Zrotation Yrotation Xrotation
				JOINT LeftFoot
				{
					OFFSET 2.562200 -7.039590 0.000000
					CHANNELS 3 Zrotation Yrotation Xrotation
					JOINT LeftToeBase
					{
						OFFSET 0.157640 -0.433110 2.322550
						CHANNELS 3 Zrotation Yrotation Xrotation
						End Site
						{
							OFFSET 0.000000 0.000000 0.000000
						}
					}
				}
			}
		}
	}
	JOINT RHipJoint
	{
		OFFSET 0.000000 0.000000 0.000000
		CHANNELS 3 Zrotation Yrotation Xrotation
		JOINT RightUpLeg
		{
			OFFSET -1.305520 -1.794630 0.839290
			CHANNELS 3 Zrotation Yrotation Xrotation
			JOINT RightLeg
			{
				OFFSET -2.542530 -6.985550 0.000000
				CHANNELS 3 Zrotation Yrotation Xrotation
				JOINT RightFoot
				{
					OFFSET -2.568260 -7.056230 0.000000
					CHANNELS 3 Zrotation Yrotation Xrotation
					JOINT RightToeBase
					{
						OFFSET -0.164730 -0.452590 2.363150
						CHANNELS 3 Zrotation Yrotation Xrotation
						End Site
						{
							OFFSET 0.000000 0.000000 0.000000
						}
					}
				}
			}
		}
	}
}
MOTION
Frames: 28
Frame Time: 0.008333
2.834794 16.728921 4.040801 7.449413 35.700765 24.713999 -10.832208 2.481149 -4.775837 -4.591636 17.551285 -13.291042 -1.255317 2.044698 33.774292 0.816565 2.910422 13.884029 0.744900 0.000001 -89.071700 9.301222 1.080865 0.139516 11.599593 -0.182173 -46.518607 1.953196 -1.334633 25.055722 -3.297114 -11.775002 -9.797458 -0.737000 -0.000000 -1.079500
2.888433 16.706317 4.177686 7.239942 35.540691 24.495774 -11.008214 2.439774 -4.687207 -3.765257 17.405115 -13.620128 -1.121818 2.141447 35.211392 0.828377 1.819281 15.556366 0.358700 -0.000001 -89.925500 9.193821 1.015225 -0.068588 12.135042 -0.352526 -46.746769 1.983693 -1.560460 27.107362 -3.251043 -11.415554 -10.703676 -0.474200 -0.000000 -0.194900
2.938994 16.688243 4.313075 6.990915 35.382882 24.253052 -11.172984 2.382330 -4.585280 -2.911070 17.131684 -13.982295 -0.989527 2.234618 36.685391 0.854985 0.623976 17.313221 -0.126500 0.000000 -89.976600 9.082637 0.951135 -0.292774 12.724139 -0.543667 -46.830356 2.028443 -1.750469 28.929334 -3.208725 -11.031724 -11.763976 179.815100 -0.000000 -0.625000
2.986214 16.674331 4.447392 6.721110 35.225580 24.003861 -11.318354 2.312276 -4.470439 -2.064231 16.722636 -14.372678 -0.864004 2.322476 38.174667 0.894883 -0.613011 19.052757 -0.691800 0.000000 -89.137700 8.972800 0.889597 -0.526139 13.342123 -0.754196 -46.768973 2.086003 -1.902607 30.483370 -3.172389 -10.638158 -12.924068 -179.885900 0.000000 -1.372500
3.029888 16.664106 4.581097 6.452535 35.068141 23.765392 -11.437954 2.234469 -4.344590 -1.259644 16.181149 -14.788134 -0.748610 2.404783 39.663038 0.943852 -1.806034 20.663666 -1.293900 -0.000000 -87.395500 8.869942 0.831752 -0.761301 13.959817 -0.982985 -46.571148 2.153482 -2.017803 31.754566 -3.142665 -10.246665 -14.124091 -179.592900 -0.000000 -2.035300
3.069898 16.657058 4.714527 6.205492 34.910686 23.550764 -11.527954 2.153806 -4.211277 -0.526707 15.521344 -15.229093 -0.643646 2.482759 41.144994 0.995900 -2.858135 22.035619 -1.869600 0.000000 -84.661100 8.779310 0.778285 -0.990394 14.548125 -1.225672 -46.251321 2.226705 -2.098990 32.746540 -3.119313 -9.869225 -15.304011 -179.319200 0.000000 -2.599400
3.106278 16.652771 4.848146 5.999223 34.750906 23.374969 -11.586541 2.074340 -4.075301 0.108283 14.764422 -15.697917 -0.547182 2.557526 42.606057 1.046903 -3.660413 23.095847 -2.342301 -0.000000 -81.231100 8.706033 0.731109 -1.207084 15.079684 -1.475753 -45.831420 2.300731 -2.150450 33.478220 -3.100725 -9.514503 -16.409001 -179.075201 0.000000 -3.056300
3.139226 16.651005 4.982223 5.845448 34.585445 23.246531 -11.614715 1.998373 -3.941212 0.629599 13.936495 -16.198296 -0.455777 2.629910 44.037180 1.094607 -4.122152 23.801134 -2.642900 -0.000000 -77.337801 8.653221 0.691258 -1.405328 15.534148 -1.721655 -45.334025 2.370471 -2.176831 33.977906 -3.085455 -9.192285 -17.394767 -178.867499 -0.000000 -3.404100
3.169077 16.651611 5.116778 5.748745 34.409568 23.169654 -11.615333 1.926401 -3.812710 1.031526 13.065001 -16.734610 -0.366153 2.700042 45.431063 1.138975 -4.183606 24.136541 -2.724599 -0.000000 -73.176500 8.621983 0.658973 -1.579938 15.900174 -1.948137 -44.780962 2.431462 -2.182683 34.279266 -3.072312 -8.911120 -18.231658 -178.698800 -0.000000 -3.649299
3.196359 16.654626 5.251841 5.708050 34.215715 23.146872 -11.592192 1.857283 -3.692076 1.314429 12.174010 -17.308809 -0.276362 2.766585 46.770384 1.183195 -3.816266 24.129655 -2.569499 -0.000000 -69.116100 8.611679 0.634576 -1.727541 16.173692 -2.138770 -44.193547 2.480348 -2.172169 34.418105 -3.060423 -8.676269 -18.906505 -178.568001 -0.000000 -3.807600
3.221613 16.660213 5.387178 5.715830 33.995748 23.176112 -11.549908 1.788789 -3.580326 1.487346 11.284840 -17.921393 -0.186139 2.827841 48.038496 1.231451 -3.031369 23.822908 -2.190999 0.000000 -65.412000 8.619530 0.617324 -1.845967 16.359663 -2.276936 -43.588738 2.515389 -2.148643 34.427487 -3.049509 -8.489891 -19.421498 -178.471300 0.000000 -3.899800
3.245479 16.668635 5.522545 5.759698 33.741807 23.252039 -11.493188 1.718431 -3.477944 1.566084 10.416341 -18.572044 -0.096832 2.882552 49.221700 1.287393 -1.876799 23.258081 -1.627900 0.000000 -62.090500 8.641380 0.605813 -1.934552 16.469845 -2.348797 -42.978524 2.536656 -2.114504 34.334746 -3.039760 -8.350255 -19.792425 -178.403200 0.000000 -3.948400
3.268505 16.680132 5.657566 5.824858 33.445928 23.367274 -11.426542 1.643834 -3.384218 1.570074 9.582168 -19.257407 -0.010784 2.929313 50.301317 1.354691 -0.421313 22.488792 -0.933200 -0.000000 -59.228300 8.672132 0.598162 -1.994243 16.520991 -2.345031 -42.369525 2.545900 -2.071162 34.159595 -3.031265 -8.250728 -20.043521 -178.357400 -0.000000 -3.975400
3.291150 16.694983 5.791948 5.896174 33.102248 23.513207 -11.353905 1.563245 -3.297977 1.520913 8.791851 -19.972806 0.069223 2.967289 51.260304 1.435395 1.250372 21.564584 -0.165600 -0.000000 -56.819200 8.706525 0.592267 -2.027445 16.532159 -2.262582 -41.762908 2.546278 -2.019065 33.912690 -3.023857 -8.180755 -20.203434 -178.328200 -0.000000 -3.999099
3.313764 16.713329 5.925403 5.959909 32.707324 23.681680 -11.278380 1.475856 -3.217531 1.439826 8.050328 -20.712239 0.140548 2.996066 52.083418 1.529585 3.047072 20.531328 0.618700 -0.000001 -54.775800 8.739834 0.586008 -2.037482 16.522194 -2.104489 -41.155237 2.541806 -1.957849 33.595558 -3.016771 -8.126835 -20.299236 -178.310800 0.000000 -4.034000
3.336537 16.735251 6.057799 6.005518 32.259956 23.865142 -11.202047 1.381708 -3.140884 1.345459 7.358169 -21.469123 0.201091 3.015535 52.757870 1.635293 4.880674 19.429719 1.371800 0.000000 -53.015900 8.768389 0.577597 -2.028386 16.507734 -1.879703 -40.540114 2.536733 -1.886706 33.203000 -3.008727 -8.074509 -20.353485 -178.302100 -0.000001 -4.090000
3.359535 16.760624 6.189035 6.026673 31.761685 24.058128 -11.125839 1.281755 -3.065900 1.251492 6.711895 -22.236236 0.249510 3.025703 53.274033 1.748802 6.673196 18.294426 2.057700 -0.000000 -51.448800 8.790113 0.565795 -2.004412 16.500844 -1.602056 -39.909226 2.534991 -1.804614 32.724613 -2.997733 -8.009213 -20.380439 -178.300601 -0.000000 -4.171400
3.382628 16.789193 6.319221 6.022006 31.216193 24.257560 -11.049595 1.177567 -2.990596 1.166529 6.105727 -23.006506 0.285230 3.026600 53.626537 1.865248 8.361800 17.151649 2.652400 -0.000000 -49.989000 8.804724 0.549995 -1.969485 16.508017 -1.288232 -39.254934 2.539595 -1.710803 32.149110 -2.981287 -7.917912 -20.385063 -178.306600 0.000000 -4.277300
3.405686 16.820582 6.448519 5.993549 30.628125 24.461842 -10.972528 1.071199 -2.913090 1.093392 5.532432 -23.773532 0.308235 3.018252 53.813178 1.979578 9.902424 16.018632 3.144199 0.000000 -48.576300 8.813264 0.530193 -1.926999 16.531062 -0.956014 -38.570806 2.552375 -1.604754 31.465999 -2.956799 -7.791037 -20.363179 -178.322100 0.000000 -4.401400
3.428416 16.854301 6.577173 5.947872 30.003271 24.671278 -10.892815 0.964679 -2.832110 1.029124 4.984428 -24.531040 0.319021 3.000341 53.834914 2.087428 11.270517 14.904564 3.530600 -0.000000 -47.168600 8.818593 0.506861 -1.879569 16.566189 -0.622664 -37.853087 2.573749 -1.486752 30.669409 -2.921620 -7.622255 -20.303488 -178.349800 -0.000000 -4.532800
3.450596 16.889735 6.705478 5.892882 29.347258 24.887001 -10.808634 0.860054 -2.746683 0.967131 4.454890 -25.273675 0.318232 2.972540 53.695071 2.185657 12.458435 13.810781 3.816300 0.000000 -45.745900 8.824195 0.480875 -1.828852 16.606092 -0.302471 -37.101939 2.602776 -1.357807 29.760390 -2.873573 -7.409477 -20.190768 -178.392601 0.000000 -4.658000
3.472031 16.926346 6.833674 5.836772 28.664729 25.109578 -10.717956 0.758812 -2.656374 0.898366 3.938330 -25.996447 0.306693 2.934208 53.397491 2.272960 13.474207 12.738194 4.011700 0.000000 -44.355100 8.834096 0.453177 -1.775870 16.641573 -0.006526 -36.320891 2.637540 -1.219829 28.747135 -2.810980 -7.153807 -20.008819 -178.452700 0.000000 -4.762800
3.492601 16.963529 6.961996 5.786421 27.957475 25.338941 -10.620261 0.662602 -2.561529 0.814104 3.434306 -26.696358 0.284529 2.885795 52.950735 2.348117 14.327463 11.665485 4.123100 -0.000000 -42.862200 8.850979 0.424509 -1.720571 16.663906 0.260665 -35.514940 2.675221 -1.075060 27.644563 -2.733502 -6.861172 -19.744345 -178.530800 0.000000 -4.832900
3.512297 17.000814 7.090565 5.746937 27.228500 25.574332 -10.513972 0.571741 -2.462150 0.705937 2.939379 -27.369063 0.252672 2.826260 52.357072 2.412720 15.041567 10.601772 4.166099 0.000000 -41.444600 8.878166 0.395449 -1.663025 16.665211 0.496860 -34.693546 2.713047 -0.926973 26.475578 -2.641426 -6.537870 -19.390692 -178.626100 0.000000 -4.859600
3.531250 17.037798 7.219450 5.719946 26.476923 25.812999 -10.399660 0.486784 -2.359079 0.569275 2.455978 -28.011190 0.211228 2.756052 51.623380 2.467293 15.630357 9.536235 4.148100 0.000000 -40.054200 8.916483 0.366181 -1.602704 16.640431 0.706277 -33.865043 2.748283 -0.778858 25.266181 -2.536448 -6.192684 -18.948635 -178.735500 -0.000000 -4.837700
3.549667 17.074148 7.348586 5.704297 25.701489 26.051113 -10.278183 0.407638 -2.252973 0.403087 1.986069 -28.619717 0.160489 2.675444 50.754362 2.512584 16.104710 8.470495 4.077600 0.000000 -38.720699 8.965683 0.336556 -1.539240 16.587813 0.896119 -33.037607 2.778812 -0.634101 24.044451 -2.421183 -5.834440 -18.427489 -178.855000 0.000000 -4.767600
3.567849 17.109688 7.477891 5.695897 24.901155 26.284341 -10.150800 0.333823 -2.144588 0.210167 1.531622 -29.191217 0.100905 2.584771 49.753408 2.548799 16.469276 7.414762 3.962999 -0.000000 -37.488500 9.024357 0.306177 -1.472443 16.508712 1.076045 -32.218341 2.803418 -0.495720 22.836798 -2.298677 -5.470466 -17.843171 -178.979400 0.000000 -4.653901
3.586107 17.144261 7.607235 5.689579 24.074274 26.507857 -10.019523 0.265021 -2.034310 -0.003182 1.093844 -29.722625 0.032979 2.484813 48.624887 2.575111 16.720951 6.383228 3.811500 -0.000000 -36.376000 9.089917 0.274734 -1.402492 16.406250 1.256035 -31.411445 2.821632 -0.366019 21.666776 -2.172124 -5.106163 -17.216735 -179.103800 0.000000 -4.504800
